<?xml version="1.0" encoding="utf-8"?>
<!-- Generator: Adobe Illustrator 16.0.0, SVG Export Plug-In . SVG Version: 6.00 Build 0)  -->
<!DOCTYPE svg PUBLIC "-//W3C//DTD SVG 1.1//EN" "http://www.w3.org/Graphics/SVG/1.1/DTD/svg11.dtd">
<svg version="1.1" id="Capa_1" xmlns="http://www.w3.org/2000/svg" xmlns:xlink="http://www.w3.org/1999/xlink" x="0px" y="0px"
	 width="612px" height="589.532px" viewBox="0 101.23 612 589.532" enable-background="new 0 101.23 612 589.532"
	 xml:space="preserve">
<g>
	<g id="group-19svg">
		<path id="path-1_9_" d="M303.482,526.641c-11.951,0-22.176-5.33-25.497-16.845l-48.181-166.038h-41.002l-25.954,40.058
			c-4.935,7.92-13.362,10.743-22.572,10.743c-0.081,0-0.183,0-0.274,0c-8.905,0-17.099-2.417-21.963-9.87L75.424,323.44H25.771
			c-8.408,0-15.231-6.824-15.231-15.241c0-8.408,6.823-15.241,15.231-15.241h50.201c5.32-0.041,15.779-0.112,22.247,9.809
			l41.794,62.031l23.08-37.57c5.483-8.763,13.9-13.941,22.582-13.941h47.47c12.854,0,22.562,10.347,25.517,20.562l44.708,156.26
			l34.361-128.824c3.087-11.616,13.24-19.557,25.263-19.75c11.9-0.406,22.329,7.352,25.802,18.815l22.166,72.977l75.596-107.419
			c5.687-8.042,13.586-12.622,21.699-12.622h75.982c8.407,0,15.23,6.824,15.23,15.241c0,8.408-6.823,15.231-15.23,15.231h-72.875
			l-80.054,113.593c-5.981,8.468-16.023,12.692-26.197,11.037c-9.962-1.625-17.973-8.641-20.897-18.317l-20.582-67.737
			l-34.473,126.925c-3.127,11.687-13.343,17.383-25.416,17.383C303.654,526.641,303.563,526.641,303.482,526.641z"/>
		<path id="path-2_9_" d="M310.214,690.719c-1.432,0.152-2.843-0.122-4.204-0.375c-1.36,0.253-2.771,0.375-4.203,0.375
			C242.365,690.719,0,396.802,0,298.796C0,189.854,88.573,101.23,197.444,101.23c35.224,0,65.127,28.238,91.528,53.156
			c5.92,5.585,11.626,10.987,17.038,15.678c5.402-4.691,11.108-10.093,17.039-15.688c26.39-24.907,56.293-53.146,91.507-53.146
			C523.438,101.23,612,189.854,612,298.796c0,65.859-90.827,185.798-129.88,234.303
			C469.134,549.233,353.968,690.719,310.214,690.719z M306.01,659.019c1.777,0,3.574,0.314,5.271,0.934
			c40.159-11.007,270.258-269.872,270.258-361.156c0-92.137-74.906-167.083-166.982-167.083c-23.1,0-48.343,23.821-70.601,44.84
			c-10.042,9.474-19.525,18.419-28.857,25.365c-5.392,4.031-12.794,4.031-18.186,0c-9.332-6.945-18.805-15.891-28.847-25.365
			c-22.268-21.019-47.5-44.84-70.621-44.84c-92.076,0-166.982,74.947-166.982,167.083c0,91.284,230.089,350.119,270.268,361.156
			C302.436,659.333,304.223,659.019,306.01,659.019z"/>
	</g>
</g>
</svg>
