<?xml version="1.0" encoding="utf-8"?>
<!-- Generator: Adobe Illustrator 16.0.0, SVG Export Plug-In . SVG Version: 6.00 Build 0)  -->
<!DOCTYPE svg PUBLIC "-//W3C//DTD SVG 1.1//EN" "http://www.w3.org/Graphics/SVG/1.1/DTD/svg11.dtd">
<svg version="1.1" id="Capa_1" xmlns="http://www.w3.org/2000/svg" xmlns:xlink="http://www.w3.org/1999/xlink" x="0px" y="0px"
	 width="608.015px" height="612px" viewBox="1.993 90 608.015 612" enable-background="new 1.993 90 608.015 612"
	 xml:space="preserve">
<path d="M610.008,312.999c0-78.235-63.626-141.883-141.832-141.883c-3.397,0-6.829,0.128-10.276,0.385
	C424.246,120.903,367.23,90,306,90c-61.229,0-118.244,30.909-151.897,81.501c-3.447-0.257-6.878-0.385-10.276-0.385
	c-78.208,0-141.833,63.648-141.833,141.883c0,71.373,52.966,130.576,121.64,140.413v196.082c0,28.953,23.553,52.506,52.504,52.506
	h259.727c28.954,0,52.505-23.555,52.505-52.506V453.412C557.044,443.575,610.008,384.37,610.008,312.999z M435.863,661.61H176.139
	c-6.565,0-12.117-5.55-12.117-12.119V453.431c19.786-2.802,38.571-9.729,55.515-20.503c25.99,14.058,55.55,21.948,86.463,21.948
	s60.471-7.891,86.461-21.946c16.948,10.771,35.735,17.699,55.519,20.501v196.061C447.979,656.061,442.431,661.61,435.863,661.61z
	 M468.176,414.485c-13.594,0-26.734-2.656-38.945-7.76c24.577-22.531,43.155-51.816,52.483-85.472
	c2.978-10.748-3.319-21.877-14.067-24.857c-10.75-2.978-21.876,3.322-24.857,14.068C425.818,371.711,369.567,414.485,306,414.485
	c-63.568,0-119.816-42.774-136.789-104.021c-2.978-10.749-14.101-17.045-24.857-14.068c-10.748,2.978-17.045,14.109-14.067,24.857
	c9.326,33.656,27.907,62.943,52.483,85.472c-12.211,5.104-25.352,7.76-38.943,7.76c-55.937,0-101.444-45.527-101.444-101.487
	c0-55.962,45.509-101.493,101.444-101.493c5.654,0,11.476,0.507,17.303,1.504c8.412,1.435,16.835-2.569,21.019-10.017
	c25.149-44.783,72.607-72.604,123.851-72.604s98.701,27.822,123.854,72.605c4.181,7.447,12.601,11.451,21.019,10.015
	c5.827-0.997,11.648-1.504,17.301-1.504c55.935,0,101.441,45.531,101.441,101.493C569.619,368.958,524.111,414.485,468.176,414.485z
	"/>
</svg>
