<?xml version="1.0" encoding="utf-8"?>
<!-- Generator: Adobe Illustrator 16.0.0, SVG Export Plug-In . SVG Version: 6.00 Build 0)  -->
<!DOCTYPE svg PUBLIC "-//W3C//DTD SVG 1.1//EN" "http://www.w3.org/Graphics/SVG/1.1/DTD/svg11.dtd">
<svg version="1.1" id="Capa_1" xmlns="http://www.w3.org/2000/svg" xmlns:xlink="http://www.w3.org/1999/xlink" x="0px" y="0px"
	 width="612.001px" height="584.338px" viewBox="0 103.831 612.001 584.338" enable-background="new 0 103.831 612.001 584.338"
	 xml:space="preserve">
<g>
	<path d="M611.161,324.653c-2.01-6.155-7.285-10.551-13.691-11.556l-190.928-27.131l-85.917-172.714
		c-2.89-5.778-8.793-9.421-15.199-9.421l0,0c-6.406,0-12.31,3.643-15.199,9.546L205.44,286.594L14.513,314.981
		c-6.406,1.005-11.682,5.401-13.692,11.556s-0.251,12.938,4.396,17.334l138.548,134.277l-32.03,190.173
		c-1.131,6.406,1.507,12.812,6.783,16.581c2.889,2.136,6.406,3.266,9.923,3.266c2.763,0,5.401-0.628,7.914-2.01l170.453-90.313
		l170.955,89.309c2.513,1.256,5.15,1.885,7.788,1.885l0,0c9.295,0,16.957-7.662,16.957-16.958c0-1.382-0.125-2.638-0.502-3.894
		l-33.035-189.043l137.668-135.031C611.538,337.591,613.171,330.809,611.161,324.653z M439.075,459.182
		c-4.02,3.895-5.778,9.547-4.773,15.073l28.765,164.927L314.596,561.68c-4.899-2.638-10.803-2.512-15.827,0L150.8,640.061
		l27.76-165.178c0.879-5.526-0.879-11.054-4.898-14.947L53.578,343.369l165.68-24.619c5.527-0.879,10.3-4.271,12.687-9.295
		L305.552,159.1l74.612,149.978c2.512,5.024,7.285,8.416,12.812,9.295l165.805,23.615L439.075,459.182z"/>
</g>
</svg>
